<svg xmlns="http://www.w3.org/2000/svg" width="62.92" height="68.834" viewBox="0 0 62.92 68.834">
  <g id="Grupo_1014" data-name="Grupo 1014" transform="translate(-1248.27 -1201.366)">
    <g id="Grupo_719" data-name="Grupo 719">
      <path id="Trazado_481" data-name="Trazado 481" d="M1283.08,1216.22h.45a9.9,9.9,0,0,1,9.9,9.9v25.22a9.9,9.9,0,0,1-9.9,9.9h-7.6a9.9,9.9,0,0,1-9.9-9.9v-2.52" fill="none" stroke="#7974f5" stroke-miterlimit="10" stroke-width="1"/>
      <circle id="Elipse_16" data-name="Elipse 16" cx="30.96" cy="30.96" r="30.96" transform="translate(1248.77 1207.78)" fill="none" stroke="#4691d3" stroke-miterlimit="10" stroke-width="1"/>
      <path id="Trazado_482" data-name="Trazado 482" d="M1286.47,1227.07l-.95-1.18-.49-.61-2-2.5h0l-2.51-3.13a.01.01,0,0,0-.01-.01l-1.79-2.24h0l-2.5-3.12h0l-.92-1.15-.57-.71h0l-2.34-2.93a.328.328,0,0,0-.54.04l-6.47,10.74-.43.72-7.41,12.31a1.1,1.1,0,0,0,.08,1.25l11.74,14.6a3.157,3.157,0,0,0,5.17-.35l12.03-20.11A1.4,1.4,0,0,0,1286.47,1227.07Z" fill="none" stroke="#7974f5" stroke-miterlimit="10" stroke-width="1"/>
      <path id="Trazado_483" data-name="Trazado 483" d="M1280.47,1219.07l-.95-1.18-.49-.61-2-2.5h0l-2.51-3.13a.01.01,0,0,0-.01-.01l-1.79-2.24h0l-2.5-3.12h0l-.92-1.15-.57-.71h0l-2.34-2.93a.328.328,0,0,0-.54.04l-6.47,10.74-.43.72-7.41,12.31a1.1,1.1,0,0,0,.08,1.25l11.74,14.6a3.157,3.157,0,0,0,5.17-.35l12.03-20.11A1.4,1.4,0,0,0,1280.47,1219.07Z" fill="#7974f5" opacity="0.1"/>
    </g>
    <path id="Trazado_484" data-name="Trazado 484" d="M1284.26,1219.94a6.192,6.192,0,0,1,5.83,6.18v25.61a6.188,6.188,0,0,1-6.19,6.19h-8.61a6.194,6.194,0,0,1-6.16-5.55" fill="none" stroke="#7974f5" stroke-miterlimit="10" stroke-width="1"/>
    <circle id="Elipse_17" data-name="Elipse 17" cx="1.5" cy="1.5" r="1.5" transform="translate(1278.09 1251.93)" fill="none" stroke="#7974f5" stroke-miterlimit="10" stroke-width="1"/>
  </g>
</svg>
