<svg xmlns="http://www.w3.org/2000/svg" width="88.927" height="60.141" viewBox="0 0 88.927 60.141">
  <g id="Grupo_1013" data-name="Grupo 1013" transform="translate(-944.857 -1199.978)">
    <path id="Trazado_176" data-name="Trazado 176" d="M1007.48,1230.25l-1.2-1.49-.61-.77-2.52-3.15h0l-3.17-3.96-.01-.01-2.26-2.82h0l-3.15-3.94h0l-1.16-1.45-.72-.9h0l-2.96-3.7a.417.417,0,0,0-.68.05l-8.17,13.56-.55.91-9.36,15.54a1.356,1.356,0,0,0,.11,1.57l14.83,18.43a3.986,3.986,0,0,0,6.53-.44l15.2-25.39A1.813,1.813,0,0,0,1007.48,1230.25Z" fill="none" stroke="#7974f5" stroke-miterlimit="10" stroke-width="1"/>
    <circle id="Elipse_11" data-name="Elipse 11" cx="1.77" cy="1.77" r="1.77" transform="translate(987.55 1232.39)" fill="none" stroke="#7974f5" stroke-miterlimit="10" stroke-width="1"/>
    <path id="Trazado_177" data-name="Trazado 177" d="M999.03,1235.52v-2.72a.559.559,0,0,0-.56-.56h-1.69a.568.568,0,0,1-.53-.39,6.7,6.7,0,0,0-.4-.96.545.545,0,0,1,.1-.65l1.2-1.2a.555.555,0,0,0,0-.79l-1.92-1.92a.555.555,0,0,0-.79,0l-1.2,1.2a.577.577,0,0,1-.65.1,8.082,8.082,0,0,0-.96-.4.558.558,0,0,1-.39-.53v-1.69a.559.559,0,0,0-.56-.56h-2.72a.559.559,0,0,0-.56.56v1.69a.568.568,0,0,1-.39.53,6.7,6.7,0,0,0-.96.4.545.545,0,0,1-.65-.1l-1.2-1.2a.555.555,0,0,0-.79,0l-1.92,1.92a.555.555,0,0,0,0,.79l1.2,1.2a.577.577,0,0,1,.1.65,8.1,8.1,0,0,0-.4.96.558.558,0,0,1-.53.39h-1.69a.559.559,0,0,0-.56.56v2.72a.559.559,0,0,0,.56.56h1.69a.568.568,0,0,1,.53.39,6.7,6.7,0,0,0,.4.96.545.545,0,0,1-.1.65l-1.2,1.2a.555.555,0,0,0,0,.79l1.92,1.92a.555.555,0,0,0,.79,0l1.2-1.2a.577.577,0,0,1,.65-.1,8.082,8.082,0,0,0,.96.4.558.558,0,0,1,.39.53v1.69a.559.559,0,0,0,.56.56h2.72a.559.559,0,0,0,.56-.56v-1.69a.568.568,0,0,1,.39-.53,6.7,6.7,0,0,0,.96-.4.545.545,0,0,1,.65.1l1.2,1.2a.555.555,0,0,0,.79,0l1.92-1.92a.555.555,0,0,0,0-.79l-1.2-1.2a.577.577,0,0,1-.1-.65,8.1,8.1,0,0,0,.4-.96.558.558,0,0,1,.53-.39h1.69A.559.559,0,0,0,999.03,1235.52Z" fill="none" stroke="#7974f5" stroke-miterlimit="10" stroke-width="1"/>
    <g id="Grupo_310" data-name="Grupo 310">
      <g id="Grupo_309" data-name="Grupo 309">
        <circle id="Elipse_12" data-name="Elipse 12" cx="2.12" cy="2.12" r="2.12" transform="translate(968.65 1218.05)" fill="none" stroke="#7974f5" stroke-miterlimit="10" stroke-width="1"/>
        <path id="Trazado_178" data-name="Trazado 178" d="M976.03,1220.9v-1.47a.3.3,0,0,0-.3-.3h-.92a.3.3,0,0,1-.28-.21,3.379,3.379,0,0,0-.22-.52.3.3,0,0,1,.05-.35l.65-.65a.3.3,0,0,0,0-.43l-1.04-1.04a.3.3,0,0,0-.43,0l-.65.65a.3.3,0,0,1-.35.05,4.762,4.762,0,0,0-.52-.22.3.3,0,0,1-.21-.28v-.92a.3.3,0,0,0-.3-.3h-1.47a.3.3,0,0,0-.3.3v.92a.3.3,0,0,1-.21.28,3.388,3.388,0,0,0-.52.22.3.3,0,0,1-.35-.05l-.65-.65a.3.3,0,0,0-.43,0l-1.04,1.04a.3.3,0,0,0,0,.43l.65.65a.3.3,0,0,1,.05.35,4.762,4.762,0,0,0-.22.52.3.3,0,0,1-.28.21h-.92a.3.3,0,0,0-.3.3v1.47a.3.3,0,0,0,.3.3h.92a.3.3,0,0,1,.28.21,3.379,3.379,0,0,0,.22.52.3.3,0,0,1-.05.35l-.65.65a.3.3,0,0,0,0,.43l1.04,1.04a.3.3,0,0,0,.43,0l.65-.65a.3.3,0,0,1,.35-.05,4.762,4.762,0,0,0,.52.22.3.3,0,0,1,.21.28v.92a.3.3,0,0,0,.3.3h1.47a.3.3,0,0,0,.3-.3v-.92a.3.3,0,0,1,.21-.28,3.388,3.388,0,0,0,.52-.22.3.3,0,0,1,.35.05l.65.65a.3.3,0,0,0,.43,0l1.04-1.04a.3.3,0,0,0,0-.43l-.65-.65a.3.3,0,0,1-.05-.35,4.762,4.762,0,0,0,.22-.52.3.3,0,0,1,.28-.21h.92A.3.3,0,0,0,976.03,1220.9Z" fill="none" stroke="#7974f5" stroke-miterlimit="10" stroke-width="1"/>
      </g>
    </g>
    <g id="Grupo_311" data-name="Grupo 311">
      <path id="Trazado_179" data-name="Trazado 179" d="M994.91,1253.52h8.98" fill="none" stroke="#4691d3" stroke-miterlimit="10" stroke-width="1"/>
      <path id="Trazado_180" data-name="Trazado 180" d="M1006.01,1253.52h10.92a6.6,6.6,0,0,0,5.2-2.53l11.26-14.35" fill="none" stroke="#4691d3" stroke-miterlimit="10" stroke-width="1"/>
      <path id="Trazado_181" data-name="Trazado 181" d="M998.72,1246.41h13.99" fill="none" stroke="#4691d3" stroke-miterlimit="10" stroke-width="1"/>
      <path id="Trazado_182" data-name="Trazado 182" d="M1018.53,1244.72a6.187,6.187,0,0,0,.96-1.08l2.33-3.26" fill="none" stroke="#4691d3" stroke-miterlimit="10" stroke-width="1"/>
      <path id="Trazado_183" data-name="Trazado 183" d="M1023.27,1238.37c1.63-2.27,3.16-4.41,3.16-4.41" fill="none" stroke="#4691d3" stroke-miterlimit="10" stroke-width="1"/>
      <path id="Trazado_184" data-name="Trazado 184" d="M1003.91,1238.47h5.96a6.607,6.607,0,0,0,5.32-2.68l3.89-5.26" fill="none" stroke="#4691d3" stroke-miterlimit="10" stroke-width="1"/>
    </g>
    <g id="Grupo_312" data-name="Grupo 312">
      <path id="Trazado_185" data-name="Trazado 185" d="M982.21,1253.52h-8.75" fill="none" stroke="#4691d3" stroke-miterlimit="10" stroke-width="1"/>
      <path id="Trazado_186" data-name="Trazado 186" d="M967.67,1253.52h-5.96a6.6,6.6,0,0,1-5.2-2.53l-11.26-14.35" fill="none" stroke="#4691d3" stroke-miterlimit="10" stroke-width="1"/>
      <path id="Trazado_187" data-name="Trazado 187" d="M976.49,1246.41H964.53a6.629,6.629,0,0,1-5.38-2.76s-.15-.21-.41-.57" fill="none" stroke="#4691d3" stroke-miterlimit="10" stroke-width="1"/>
      <path id="Trazado_188" data-name="Trazado 188" d="M956.99,1240.63c-2.04-2.84-4.78-6.67-4.78-6.67" fill="none" stroke="#4691d3" stroke-miterlimit="10" stroke-width="1"/>
      <path id="Trazado_189" data-name="Trazado 189" d="M970.96,1238.47h-2.2a6.607,6.607,0,0,1-5.32-2.68l-3.89-5.26" fill="none" stroke="#4691d3" stroke-miterlimit="10" stroke-width="1"/>
    </g>
    <path id="Trazado_190" data-name="Trazado 190" d="M1007.21,1221.98l-1.18-1.47-.6-.75-2.48-3.1h0l-3.12-3.9-.01-.01-2.23-2.78h0l-3.1-3.88h0l-1.14-1.43-.71-.89h0l-2.92-3.64a.408.408,0,0,0-.67.05l-8.04,13.35-.54.89-9.22,15.31a1.373,1.373,0,0,0,.1,1.55l14.61,18.15a3.926,3.926,0,0,0,6.43-.44l14.97-25.01A1.785,1.785,0,0,0,1007.21,1221.98Z" fill="#7974f5" opacity="0.1"/>
  </g>
</svg>
