<svg xmlns="http://www.w3.org/2000/svg" width="25.79" height="19.74" viewBox="0 0 25.79 19.74">
  <g id="Grupo_997" data-name="Grupo 997" transform="translate(-1352.24 -177.66)">
    <path id="Trazado_78" data-name="Trazado 78" d="M1367.66,191.39h-8.09a3.53,3.53,0,0,1-3.53-3.53V179.9a1.741,1.741,0,0,1,1.74-1.74h15.81a1.741,1.741,0,0,1,1.74,1.74v1.43" fill="none" stroke="#fff" stroke-linecap="round" stroke-linejoin="round" stroke-miterlimit="10" stroke-width="1"/>
    <path id="Trazado_79" data-name="Trazado 79" d="M1368.65,196.9h-14.62a1.293,1.293,0,0,1-1.29-1.29V194.6a.448.448,0,0,1,.45-.45h15.23" fill="none" stroke="#fff" stroke-linecap="round" stroke-linejoin="round" stroke-miterlimit="10" stroke-width="1"/>
    <path id="Trazado_80" data-name="Trazado 80" d="M1371.31,196.9h4.72a1.5,1.5,0,0,0,1.5-1.5V185.17a1.5,1.5,0,0,0-1.5-1.5h-4.72a1.5,1.5,0,0,0-1.5,1.5V195.4A1.511,1.511,0,0,0,1371.31,196.9Z" fill="none" stroke="#fff" stroke-linecap="round" stroke-linejoin="round" stroke-miterlimit="10" stroke-width="1"/>
    <circle id="Elipse_4" data-name="Elipse 4" cx="1.1" cy="1.1" r="1.1" transform="translate(1372.57 192.77)" stroke-width="1" stroke="#fff" stroke-linecap="round" stroke-linejoin="round" stroke-miterlimit="10" fill="none"/>
  </g>
</svg>
