<svg xmlns="http://www.w3.org/2000/svg" width="27.94" height="27.94" viewBox="0 0 27.94 27.94">
  <g id="Grupo_999" data-name="Grupo 999" transform="translate(-240.95 -131.83)">
    <path id="Trazado_891" data-name="Trazado 891" d="M729.53,278.98a1.91,1.91,0,1,0,1.91,1.91A1.916,1.916,0,0,0,729.53,278.98Z" transform="translate(-474.59 -135.09)" fill="#fff"/>
    <path id="Trazado_892" data-name="Trazado 892" d="M731.79,276.24h-4.55a2.369,2.369,0,0,0-2.37,2.37v4.56a2.369,2.369,0,0,0,2.37,2.37h4.55a2.369,2.369,0,0,0,2.37-2.37v-4.56A2.369,2.369,0,0,0,731.79,276.24Zm-2.26,7.63a2.98,2.98,0,1,1,2.98-2.98A2.981,2.981,0,0,1,729.53,283.87Zm2.99-5.25a.67.67,0,1,1,.67-.67A.67.67,0,0,1,732.52,278.62Z" transform="translate(-474.59 -135.09)" fill="#fff"/>
    <path id="Trazado_893" data-name="Trazado 893" d="M729.51,266.92a13.97,13.97,0,1,0,13.97,13.97A13.971,13.971,0,0,0,729.51,266.92Zm5.73,16.24a3.444,3.444,0,0,1-3.45,3.45h-4.55a3.444,3.444,0,0,1-3.45-3.45V278.6a3.45,3.45,0,0,1,3.45-3.45h4.55a3.444,3.444,0,0,1,3.45,3.45Z" transform="translate(-474.59 -135.09)" fill="#fff"/>
  </g>
</svg>
