<svg xmlns="http://www.w3.org/2000/svg" xmlns:xlink="http://www.w3.org/1999/xlink" width="52.889" height="62.32" viewBox="0 0 52.889 62.32">
  <defs>
    <linearGradient id="linear-gradient" x1="0.887" y1="-0.098" x2="0.412" y2="1.136" gradientUnits="objectBoundingBox">
      <stop offset="0" stop-color="#59b4b2"/>
      <stop offset="0.979" stop-color="#305155"/>
      <stop offset="1" stop-color="#304f54"/>
    </linearGradient>
    <linearGradient id="linear-gradient-2" x1="1.936" y1="-6.745" x2="0.386" y2="0.661" xlink:href="#linear-gradient"/>
  </defs>
  <g id="Grupo_237" data-name="Grupo 237" transform="translate(-935.11 -1427.388)">
    <path id="Trazado_55" data-name="Trazado 55" d="M986.857,1474.235c-6.785-7.37-6.9-7.344-6.784-18.523.06-6-1.561-11.246-6.223-15.163a25.65,25.65,0,0,0-6.1-3.548,2.462,2.462,0,0,1-1.7-2.516c-.089-1.048-.021-1.975-.089-2.89a4.381,4.381,0,0,0-4.194-4.195v0c-.062,0-.122-.008-.185-.008h-.039c-.063,0-.123.006-.185.008v0a4.381,4.381,0,0,0-4.194,4.195c-.068.915,0,1.842-.089,2.89a2.463,2.463,0,0,1-1.705,2.516,25.653,25.653,0,0,0-6.1,3.548c-4.662,3.917-6.284,9.163-6.224,15.163.112,11.179,0,11.153-6.783,18.523-.715.777-1.378,2.325-1.063,3.116.291.73,1.926,1.279,2.977,1.293,7.795.1,15.591.058,23.388.057s15.592.048,23.387-.057c1.051-.014,2.685-.563,2.976-1.293C988.235,1476.56,987.572,1475.012,986.857,1474.235Zm-27.55-39.346a23.654,23.654,0,0,1,1.1-4.529,1.222,1.222,0,0,1,2.3,0,23.805,23.805,0,0,1,1.1,4.529.718.718,0,0,1-.7.853h-3.089A.718.718,0,0,1,959.307,1434.889Zm2.453,41.259H937.792c1.714-1.9,3.062-3.513,4.535-5a10.428,10.428,0,0,0,3.164-8.3c-.148-2.827-.1-5.671-.013-8.5.271-9.18,7.156-16.006,16.078-16.062,8.921.056,15.806,6.882,16.077,16.062.083,2.832.134,5.676-.013,8.5a10.428,10.428,0,0,0,3.164,8.3c1.472,1.49,2.821,3.1,4.535,5Z" fill="url(#linear-gradient)"/>
    <path id="Trazado_56" data-name="Trazado 56" d="M961.556,1481.155h-8.091a8.16,8.16,0,0,0,7.907,8.552c.062,0,.123,0,.184-.005s.121.007.183.005a8.16,8.16,0,0,0,7.907-8.552Zm0,6.113c-2.285,0-3.965-1.187-5.241-3.562H966.8C965.52,1486.081,963.84,1487.267,961.556,1487.268Z" fill="url(#linear-gradient-2)"/>
  </g>
</svg>
