<svg xmlns="http://www.w3.org/2000/svg" width="59.212" height="72.517" viewBox="0 0 59.212 72.517">
  <g id="Grupo_1012" data-name="Grupo 1012" transform="translate(-666.127 -1187.014)">
    <g id="Grupo_322" data-name="Grupo 322">
      <path id="Trazado_191" data-name="Trazado 191" d="M705.55,1219.82a8.641,8.641,0,1,1,5.69,16.11" fill="none" stroke="#4691d3" stroke-miterlimit="10" stroke-width="1"/>
      <path id="Trazado_192" data-name="Trazado 192" d="M699.8,1253.03h24.96c-1.19-8.05-6.58-14.31-13.31-15.28" fill="none" stroke="#4691d3" stroke-miterlimit="10" stroke-width="1"/>
      <circle id="Elipse_13" data-name="Elipse 13" cx="8.64" cy="8.64" r="8.64" transform="translate(700.98 1218.73)" fill="#4691d3" opacity="0.12"/>
    </g>
    <path id="Trazado_193" data-name="Trazado 193" d="M671.52,1229.69l1.2-1.49.61-.77,2.52-3.15h0l3.17-3.96.01-.01,2.26-2.82h0l3.15-3.94,1.16-1.45.72-.9,2.96-3.7a.98.98,0,0,1,.94,0l2.96,3.7.72.9,1.16,1.45,3.15,3.94h0l2.26,2.82.01.01,3.17,3.96h0l2.52,3.15.61.77,1.2,1.49a1.781,1.781,0,0,1,.14,2.02l-15.2,25.39a3.972,3.972,0,0,1-3.18,1.93,3.923,3.923,0,0,1-3.18-1.93l-15.2-25.39A1.82,1.82,0,0,1,671.52,1229.69Z" fill="none" stroke="#7974f5" stroke-miterlimit="10" stroke-width="1"/>
    <path id="Trazado_194" data-name="Trazado 194" d="M695.16,1248.94l-2.7,4.51a3.051,3.051,0,0,1-5.4,0s-3.49-5.83-6.84-11.43" fill="none" stroke="#7974f5" stroke-miterlimit="10" stroke-width="1"/>
    <path id="Trazado_195" data-name="Trazado 195" d="M677,1236.63c-1.64-2.74-2.81-4.7-2.81-4.7a1.492,1.492,0,0,1,.12-1.71l1.01-1.27.52-.65,2.14-2.67s2.68-3.35,2.69-3.36,1.92-2.39,1.92-2.4l2.67-3.34.98-1.23.61-.76,2.51-3.13a.345.345,0,0,1,.4-.1.342.342,0,0,1,.4.1l2.51,3.13.61.76.98,1.23,2.67,3.34s1.92,2.39,1.92,2.4,2.68,3.35,2.69,3.36l2.14,2.67.52.65,1.01,1.27a1.51,1.51,0,0,1,.12,1.71s-1.4,2.34-3.28,5.47" fill="none" stroke="#7974f5" stroke-miterlimit="10" stroke-width="1"/>
    <path id="Trazado_196" data-name="Trazado 196" d="M700.12,1240.65c-.39.66-.79,1.33-1.2,2" fill="none" stroke="#7974f5" stroke-miterlimit="10" stroke-width="1"/>
    <path id="Trazado_197" data-name="Trazado 197" d="M666.52,1209.1l1.2-1.48.61-.76,2.52-3.11h0l3.17-3.91.01-.01,2.26-2.79h0l3.15-3.89,1.16-1.44.72-.89,2.96-3.66a.389.389,0,0,1,.47-.11.419.419,0,0,1,.47.11l2.96,3.66.72.89,1.16,1.44,3.15,3.89h0l2.26,2.79.01.01,3.17,3.91h0l2.52,3.11.61.76,1.2,1.48a1.749,1.749,0,0,1,.14,2l-15.2,25.1a3.611,3.611,0,0,1-6.36,0l-15.2-25.1A1.786,1.786,0,0,1,666.52,1209.1Z" fill="#7974f5" opacity="0.1"/>
  </g>
</svg>
