<svg xmlns="http://www.w3.org/2000/svg" xmlns:xlink="http://www.w3.org/1999/xlink" width="327.31" height="82.97" viewBox="0 0 327.31 82.97">
  <defs>
    <clipPath id="clip-path">
      <rect id="Rectángulo_16" data-name="Rectángulo 16" width="307.2" height="82.97" transform="translate(706.15 481.35)"/>
    </clipPath>
  </defs>
  <g id="Grupo_1006" data-name="Grupo 1006" transform="translate(-701.86 -481.35)">
    <g id="Grupo_236" data-name="Grupo 236">
      <g id="Grupo_235" data-name="Grupo 235" clip-path="url(#clip-path)">
        <g id="Grupo_155" data-name="Grupo 155">
          <g id="Grupo_153" data-name="Grupo 153" opacity="0.07">
            <g id="Grupo_125" data-name="Grupo 125">
              <g id="Grupo_124" data-name="Grupo 124">
                <g id="Grupo_123" data-name="Grupo 123">
                  <path id="Trazado_88" data-name="Trazado 88" d="M667.45,526.15a.354.354,0,0,1-.17-.04.371.371,0,0,1-.17-.5l3.71-7.52,1.2-7.57a9.746,9.746,0,0,1,3.82-6.31l5.59-4.16a2.4,2.4,0,1,1,2.85,3.85l-4.84,3.56c1.33,1.33,5.78,6.63.68,13.72a.373.373,0,0,1-.61-.43c5.48-7.61-.63-12.81-.89-13.03a.375.375,0,0,1-.14-.3.365.365,0,0,1,.15-.29l5.21-3.82a1.643,1.643,0,0,0,.36-2.29,1.663,1.663,0,0,0-1.09-.67,1.625,1.625,0,0,0-1.24.31l-5.59,4.16a9,9,0,0,0-3.53,5.82l-1.21,7.62c-.01.04-.02.07-.03.11l-3.73,7.57A.347.347,0,0,1,667.45,526.15Z" fill="#fff"/>
                </g>
              </g>
            </g>
            <g id="Grupo_128" data-name="Grupo 128">
              <g id="Grupo_127" data-name="Grupo 127">
                <g id="Grupo_126" data-name="Grupo 126">
                  <path id="Trazado_89" data-name="Trazado 89" d="M686.45,522.07a2.869,2.869,0,0,1-1.2-.27l-4.58-2.11a.376.376,0,0,1,.32-.68l4.58,2.11a2.072,2.072,0,0,0,2.75-.98l2.03-4.13a.373.373,0,0,1,.67.33l-2.03,4.13A2.8,2.8,0,0,1,686.45,522.07Z" fill="#fff"/>
                </g>
              </g>
            </g>
            <g id="Grupo_131" data-name="Grupo 131">
              <g id="Grupo_130" data-name="Grupo 130">
                <g id="Grupo_129" data-name="Grupo 129">
                  <path id="Trazado_90" data-name="Trazado 90" d="M696.65,503.88a.32.32,0,0,1-.14-.03.388.388,0,0,1-.21-.49l2.17-5.32a1.9,1.9,0,0,0-.93-2.43l-8.84-4.31a1.906,1.906,0,0,0-2.54.86l-4.18,8.38a.373.373,0,1,1-.67-.33l4.18-8.38a2.66,2.66,0,0,1,3.54-1.2l8.84,4.31a2.659,2.659,0,0,1,1.29,3.39l-2.17,5.32A.359.359,0,0,1,696.65,503.88Z" fill="#fff"/>
                </g>
              </g>
            </g>
            <g id="Grupo_134" data-name="Grupo 134">
              <g id="Grupo_133" data-name="Grupo 133">
                <g id="Grupo_132" data-name="Grupo 132">
                  <path id="Trazado_91" data-name="Trazado 91" d="M698.74,498.77a.317.317,0,0,1-.16-.04l-12.98-6.25a.376.376,0,1,1,.32-.68l12.98,6.25a.379.379,0,0,1-.16.72Z" fill="#fff"/>
                </g>
              </g>
            </g>
            <g id="Grupo_137" data-name="Grupo 137">
              <g id="Grupo_136" data-name="Grupo 136">
                <g id="Grupo_135" data-name="Grupo 135">
                  <path id="Trazado_92" data-name="Trazado 92" d="M689.33,519.31a.317.317,0,0,1-.16-.04l-7.24-3.42a.376.376,0,0,1,.32-.68l7.24,3.42a.372.372,0,0,1,.18.5A.354.354,0,0,1,689.33,519.31Z" fill="#fff"/>
                </g>
              </g>
            </g>
            <g id="Grupo_140" data-name="Grupo 140">
              <g id="Grupo_139" data-name="Grupo 139">
                <g id="Grupo_138" data-name="Grupo 138">
                  <path id="Trazado_93" data-name="Trazado 93" d="M676.17,532.23a.329.329,0,0,1-.17-.04.367.367,0,0,1-.16-.5c1.31-2.57,3.42-6.78,3.6-7.32a.228.228,0,0,1,.03-.11.369.369,0,0,1,.34-.23c4.98-.1,5.22-2.47,5.23-2.58a.385.385,0,0,1,.4-.35.376.376,0,0,1,.35.39c-.01.13-.24,3.08-5.71,3.27-.28.76-1.17,2.57-3.57,7.26A.389.389,0,0,1,676.17,532.23Zm3.38-7.57Zm0,0Zm0,0Zm0,0Zm0,0Z" fill="#fff"/>
                </g>
              </g>
            </g>
            <g id="Grupo_143" data-name="Grupo 143">
              <g id="Grupo_142" data-name="Grupo 142">
                <g id="Grupo_141" data-name="Grupo 141">
                  <path id="Trazado_94" data-name="Trazado 94" d="M693.73,508.22a1.935,1.935,0,0,1-1.85-1.37h0l-.07-.22a1.89,1.89,0,0,1,.15-1.47,1.921,1.921,0,0,1,1.14-.93l4.39-1.32a1.89,1.89,0,0,1,1.47.15,1.921,1.921,0,0,1,.93,1.14l.07.22a1.89,1.89,0,0,1-.15,1.47,1.921,1.921,0,0,1-1.14.93l-4.39,1.32A2.09,2.09,0,0,1,693.73,508.22Zm-1.13-1.59a1.184,1.184,0,0,0,1.47.79l4.39-1.32a1.177,1.177,0,0,0,.79-1.47l-.07-.22a1.18,1.18,0,0,0-1.47-.79l-4.39,1.32a1.177,1.177,0,0,0-.79,1.47Z" fill="#fff"/>
                </g>
              </g>
            </g>
            <g id="Grupo_146" data-name="Grupo 146">
              <g id="Grupo_145" data-name="Grupo 145">
                <g id="Grupo_144" data-name="Grupo 144">
                  <path id="Trazado_95" data-name="Trazado 95" d="M693.21,511.89a1.95,1.95,0,0,1-.91-.23,1.921,1.921,0,0,1-.93-1.14l-.07-.22a1.89,1.89,0,0,1,.15-1.47,1.921,1.921,0,0,1,1.14-.93l4.39-1.32a1.924,1.924,0,0,1,2.4,1.29l.07.22a1.924,1.924,0,0,1-1.29,2.4l-4.39,1.32A2.107,2.107,0,0,1,693.21,511.89Zm4.33-4.65a1.332,1.332,0,0,0-.34.05l-4.39,1.32a1.18,1.18,0,0,0-.79,1.47l.07.22h0a1.177,1.177,0,0,0,1.47.79l4.39-1.32a1.184,1.184,0,0,0,.79-1.47l-.07-.22A1.185,1.185,0,0,0,697.54,507.24Z" fill="#fff"/>
                </g>
              </g>
            </g>
            <g id="Grupo_149" data-name="Grupo 149">
              <g id="Grupo_148" data-name="Grupo 148">
                <g id="Grupo_147" data-name="Grupo 147">
                  <path id="Trazado_96" data-name="Trazado 96" d="M691.04,516.37a2.039,2.039,0,0,1-1.99-1.6l-.05-.24a2.046,2.046,0,0,1,1.55-2.44l4.8-1.06a2.038,2.038,0,0,1,2.43,1.55l.05.24a2.038,2.038,0,0,1-1.55,2.43l-4.8,1.06A1.725,1.725,0,0,1,691.04,516.37Zm4.74-4.64a1.334,1.334,0,0,0-.28.03l-4.8,1.06a1.278,1.278,0,0,0-.81.57,1.236,1.236,0,0,0-.17.97l.05.24h0a1.294,1.294,0,0,0,1.54.98l4.8-1.06a1.294,1.294,0,0,0,.98-1.54l-.05-.24A1.283,1.283,0,0,0,695.78,511.73Z" fill="#fff"/>
                </g>
              </g>
            </g>
            <g id="Grupo_152" data-name="Grupo 152">
              <g id="Grupo_151" data-name="Grupo 151">
                <g id="Grupo_150" data-name="Grupo 150">
                  <path id="Trazado_97" data-name="Trazado 97" d="M683.46,518.53a.393.393,0,0,1-.18-.04l-1.73-.93a.376.376,0,1,1,.36-.66l1.73.93a.376.376,0,0,1,.15.51A.363.363,0,0,1,683.46,518.53Z" fill="#fff"/>
                </g>
              </g>
            </g>
          </g>
          <g id="Grupo_154" data-name="Grupo 154" opacity="0.08">
            <text id="PIN" transform="translate(674.42 547.422)" fill="#f3f4f4" font-size="12.644" font-family="Poppins-Regular, Poppins"><tspan x="0" y="0">PIN</tspan></text>
          </g>
        </g>
        <g id="Grupo_181" data-name="Grupo 181">
          <g id="Grupo_180" data-name="Grupo 180" opacity="0.21">
            <g id="Grupo_157" data-name="Grupo 157">
              <g id="Grupo_156" data-name="Grupo 156">
                <path id="Trazado_98" data-name="Trazado 98" d="M762.03,498.37a1.98,1.98,0,1,1,1.98,1.98A1.976,1.976,0,0,1,762.03,498.37Zm.69,0a1.28,1.28,0,1,0,1.28-1.28A1.282,1.282,0,0,0,762.72,498.37Z" fill="#fff"/>
              </g>
            </g>
            <g id="Grupo_159" data-name="Grupo 159">
              <g id="Grupo_158" data-name="Grupo 158">
                <path id="Trazado_99" data-name="Trazado 99" d="M737.5,530.55l2.22-14.75a8.778,8.778,0,0,1,4.26-6.3l2.54-1.49-.35-.6-2.54,1.49a9.488,9.488,0,0,0-4.6,6.79l-2.22,14.75Z" fill="#fff"/>
              </g>
            </g>
            <g id="Grupo_161" data-name="Grupo 161">
              <g id="Grupo_160" data-name="Grupo 160">
                <path id="Trazado_100" data-name="Trazado 100" d="M746.6,521.27l7.14-7.45a2.87,2.87,0,0,0-2.01-4.85,2.8,2.8,0,0,0-2.08.83l-6.02,5.97.49.49,6.02-5.97a2.118,2.118,0,0,1,1.58-.63,2.175,2.175,0,0,1,1.52,3.68l-7.14,7.45Z" fill="#fff"/>
              </g>
            </g>
            <g id="Grupo_163" data-name="Grupo 163">
              <g id="Grupo_162" data-name="Grupo 162">
                <path id="Trazado_101" data-name="Trazado 101" d="M751.26,520.69a2.855,2.855,0,0,0,.96-.17l6.47-2.42a2.77,2.77,0,0,0,1.79-2.58v-2.38h-.69v2.38a2.081,2.081,0,0,1-1.34,1.94l-6.47,2.42a2.067,2.067,0,0,1-1.6-.07l-2.08-.97-.29.63,2.08.97A2.963,2.963,0,0,0,751.26,520.69Z" fill="#fff"/>
              </g>
            </g>
            <g id="Grupo_165" data-name="Grupo 165">
              <g id="Grupo_164" data-name="Grupo 164">
                <path id="Trazado_102" data-name="Trazado 102" d="M751.02,524.07a2.705,2.705,0,0,0,.63-.07l6.17-1.44a2.749,2.749,0,0,0,2.13-2.68v-2.49h-.69v2.49a2.063,2.063,0,0,1-1.6,2.01l-6.17,1.44a2.083,2.083,0,0,1-1.28-.11l-1.78-.76a2.033,2.033,0,0,1-1.18-1.33l-.18-.61-.66.19.18.61a2.746,2.746,0,0,0,1.58,1.78l1.78.76A2.871,2.871,0,0,0,751.02,524.07Z" fill="#fff"/>
              </g>
            </g>
            <g id="Grupo_167" data-name="Grupo 167">
              <g id="Grupo_166" data-name="Grupo 166">
                <path id="Trazado_103" data-name="Trazado 103" d="M750.14,527.28h5.29a2.767,2.767,0,0,0,2.75-2.55l.19-2.54-.69-.05-.19,2.54a2.071,2.071,0,0,1-2.06,1.91h-5.29a2.022,2.022,0,0,1-1.02-.27l-1.16-.66a2.085,2.085,0,0,1-1.03-2.1l.34-2.26-.68-.1-.34,2.26a2.771,2.771,0,0,0,1.37,2.81l1.16.66A2.958,2.958,0,0,0,750.14,527.28Z" fill="#fff"/>
              </g>
            </g>
            <g id="Grupo_169" data-name="Grupo 169">
              <g id="Grupo_168" data-name="Grupo 168">
                <path id="Trazado_104" data-name="Trazado 104" d="M747.71,530.26l3.93-.68a2.748,2.748,0,0,0,1.72-1.04l1.06-1.39-.55-.42-1.06,1.39a2.079,2.079,0,0,1-1.29.78l-3.93.68Z" fill="#fff"/>
              </g>
            </g>
            <g id="Grupo_171" data-name="Grupo 171">
              <g id="Grupo_170" data-name="Grupo 170">
                <path id="Trazado_105" data-name="Trazado 105" d="M751.02,516.61l20.41-7.57a3,3,0,0,0,1.75-1.67,3.039,3.039,0,0,0-.01-2.42l-4.81-11.08a3.04,3.04,0,0,0-3.94-1.62l-18.17,7.28a3.074,3.074,0,0,0-1.71,3.96l3.3,8.41.64-.25-3.3-8.41a2.373,2.373,0,0,1,1.32-3.06l18.17-7.28a2.348,2.348,0,0,1,3.05,1.26l4.81,11.08a2.381,2.381,0,0,1,.01,1.87,2.337,2.337,0,0,1-1.36,1.29l-20.41,7.57Z" fill="#fff"/>
              </g>
            </g>
            <g id="Grupo_173" data-name="Grupo 173">
              <g id="Grupo_172" data-name="Grupo 172">
                <path id="Trazado_106" data-name="Trazado 106" d="M761.24,501.46a1.978,1.978,0,0,0,1.97-1.85l-.69-.04a1.281,1.281,0,1,1-1.28-1.36,1.257,1.257,0,0,1,.81.29l.43-.54a1.977,1.977,0,0,0-3.22,1.54A1.968,1.968,0,0,0,761.24,501.46Z" fill="#fff"/>
              </g>
            </g>
            <g id="Grupo_175" data-name="Grupo 175">
              <g id="Grupo_174" data-name="Grupo 174">
                <rect id="Rectángulo_13" data-name="Rectángulo 13" width="9.11" height="0.69" transform="translate(759.495 506.714) rotate(-21.536)" fill="#fff"/>
              </g>
            </g>
            <g id="Grupo_177" data-name="Grupo 177">
              <g id="Grupo_176" data-name="Grupo 176">
                <rect id="Rectángulo_14" data-name="Rectángulo 14" width="9.11" height="0.69" transform="translate(760.735 509.023) rotate(-21.536)" fill="#fff"/>
              </g>
            </g>
            <g id="Grupo_179" data-name="Grupo 179">
              <g id="Grupo_178" data-name="Grupo 178">
                <rect id="Rectángulo_15" data-name="Rectángulo 15" width="5.22" height="0.69" transform="translate(754.086 511.549) rotate(-21.536)" fill="#fff"/>
              </g>
            </g>
          </g>
          <text id="Credit_Card" data-name="Credit Card" transform="translate(716.061 547.422)" fill="#f3f4f4" font-size="12.644" font-family="Poppins-Regular, Poppins" opacity="0.21"><tspan x="0" y="0">Credit Card</tspan></text>
        </g>
        <g id="Grupo_212" data-name="Grupo 212" opacity="0.32">
          <g id="Grupo_211" data-name="Grupo 211" opacity="0.8">
            <g id="Grupo_210" data-name="Grupo 210">
              <g id="Grupo_194" data-name="Grupo 194">
                <g id="Grupo_183" data-name="Grupo 183">
                  <g id="Grupo_182" data-name="Grupo 182">
                    <path id="Trazado_107" data-name="Trazado 107" d="M818.39,524.38a7.129,7.129,0,0,1-3.39-.8.388.388,0,0,1-.16-.51.376.376,0,0,1,.51-.15c2.89,1.53,7.05.59,12.37-2.81,9.66-6.17,18.55-16.52,16.69-19.44-.8-1.26-3.95-1.33-8.41-.2a.377.377,0,1,1-.19-.73c2.86-.73,7.86-1.63,9.23.52,2.32,3.64-7.53,14.48-16.92,20.47C824.34,523.17,821.08,524.38,818.39,524.38Z" fill="#fff"/>
                  </g>
                </g>
                <g id="Grupo_185" data-name="Grupo 185">
                  <g id="Grupo_184" data-name="Grupo 184">
                    <path id="Trazado_108" data-name="Trazado 108" d="M812.56,521.03a.382.382,0,0,1-.32-.18c-1.66-2.82-2.07-7.3,5.36-12.67a.372.372,0,1,1,.44.6c-5.52,3.99-7.31,8.03-5.16,11.68a.372.372,0,0,1-.13.51A.286.286,0,0,1,812.56,521.03Z" fill="#fff"/>
                  </g>
                </g>
                <g id="Grupo_187" data-name="Grupo 187">
                  <g id="Grupo_186" data-name="Grupo 186">
                    <path id="Trazado_109" data-name="Trazado 109" d="M819.05,528.95a1.007,1.007,0,0,1-.39-.08.844.844,0,0,1-.51-.67,9.923,9.923,0,0,0-1.99-4.21.388.388,0,0,1,.04-.53.379.379,0,0,1,.53.04,10.808,10.808,0,0,1,2.16,4.59c0,.03.01.06.07.09a.3.3,0,0,0,.29-.05,30.748,30.748,0,0,0,8.07-7.8.377.377,0,0,1,.64.4,30.6,30.6,0,0,1-8.28,8.03A1.132,1.132,0,0,1,819.05,528.95Z" fill="#fff"/>
                  </g>
                </g>
                <g id="Grupo_189" data-name="Grupo 189">
                  <g id="Grupo_188" data-name="Grupo 188">
                    <path id="Trazado_110" data-name="Trazado 110" d="M811.7,516.7a.37.37,0,0,1-.34-.22,10.01,10.01,0,0,0-2.98-3.57.824.824,0,0,1-.39-.74,1.034,1.034,0,0,1,.54-.87,34.094,34.094,0,0,1,9.47-3.88.384.384,0,0,1,.45.28.376.376,0,0,1-.28.45,33.4,33.4,0,0,0-9.26,3.8.319.319,0,0,0-.17.24.12.12,0,0,0,.05.1,10.731,10.731,0,0,1,3.25,3.89.381.381,0,0,1-.18.5A.779.779,0,0,1,811.7,516.7Z" fill="#fff"/>
                  </g>
                </g>
                <g id="Grupo_191" data-name="Grupo 191">
                  <g id="Grupo_190" data-name="Grupo 190">
                    <path id="Trazado_111" data-name="Trazado 111" d="M809.8,523.14a.4.4,0,0,1-.32-.17.383.383,0,0,1,.11-.52l10.45-6.67a.376.376,0,1,1,.41.63L810,523.08A.361.361,0,0,1,809.8,523.14Z" fill="#fff"/>
                  </g>
                </g>
                <g id="Grupo_193" data-name="Grupo 193">
                  <g id="Grupo_192" data-name="Grupo 192">
                    <path id="Trazado_112" data-name="Trazado 112" d="M829.98,519.42a.4.4,0,0,1-.32-.17l-3.27-5.12a.376.376,0,0,1,.63-.41l3.27,5.12a.383.383,0,0,1-.11.52A.36.36,0,0,1,829.98,519.42Z" fill="#fff"/>
                  </g>
                </g>
              </g>
              <g id="Grupo_196" data-name="Grupo 196">
                <g id="Grupo_195" data-name="Grupo 195">
                  <path id="Trazado_113" data-name="Trazado 113" d="M831.07,499.33a2.44,2.44,0,1,1,2.44-2.44A2.443,2.443,0,0,1,831.07,499.33Zm0-4.12a1.69,1.69,0,1,0,1.69,1.69A1.694,1.694,0,0,0,831.07,495.21Z" fill="#fff"/>
                </g>
              </g>
              <g id="Grupo_198" data-name="Grupo 198">
                <g id="Grupo_197" data-name="Grupo 197">
                  <path id="Trazado_114" data-name="Trazado 114" d="M823.41,503.03a2.44,2.44,0,1,1,2.44-2.44A2.443,2.443,0,0,1,823.41,503.03Zm0-4.12a1.69,1.69,0,1,0,1.69,1.69A1.694,1.694,0,0,0,823.41,498.91Z" fill="#fff"/>
                </g>
              </g>
              <g id="Grupo_200" data-name="Grupo 200">
                <g id="Grupo_199" data-name="Grupo 199">
                  <path id="Trazado_115" data-name="Trazado 115" d="M836.29,503.78h-3.4a1.516,1.516,0,0,1-.87-.27L829.77,502a.374.374,0,0,1,.42-.62l2.25,1.51a.8.8,0,0,0,.45.14h3.4a.81.81,0,1,0,0-1.62h-3.16a.363.363,0,0,1-.26-.11l-.86-.86a.375.375,0,1,1,.53-.53l.75.75h3.01a1.56,1.56,0,1,1-.01,3.12Z" fill="#fff"/>
                </g>
              </g>
              <g id="Grupo_202" data-name="Grupo 202">
                <g id="Grupo_201" data-name="Grupo 201">
                  <path id="Trazado_116" data-name="Trazado 116" d="M834.42,499.85a.342.342,0,0,1-.3-.16.378.378,0,0,1,.08-.52l4.43-3.2a.867.867,0,0,0,.16-1.27.875.875,0,0,0-1.19-.15l-4.33,3.18a.372.372,0,1,1-.44-.6l4.33-3.18a1.622,1.622,0,0,1,2.57,1.52,1.676,1.676,0,0,1-.66,1.12l-4.43,3.2A.513.513,0,0,1,834.42,499.85Z" fill="#fff"/>
                </g>
              </g>
              <g id="Grupo_204" data-name="Grupo 204">
                <g id="Grupo_203" data-name="Grupo 203">
                  <path id="Trazado_117" data-name="Trazado 117" d="M826.73,503.53h-.03a.372.372,0,0,1-.35-.4,7.148,7.148,0,0,1,2.92-5.22.382.382,0,0,1,.52.1.373.373,0,0,1-.1.52,6.546,6.546,0,0,0-2.59,4.65A.372.372,0,0,1,826.73,503.53Z" fill="#fff"/>
                </g>
              </g>
              <g id="Grupo_205" data-name="Grupo 205">
                <path id="Trazado_118" data-name="Trazado 118" d="M831.34,504.26l1.34,1.43a1.558,1.558,0,0,1,.06,2.07l-2.65,3.18a1.577,1.577,0,0,1-1.1.56h-.1a1.541,1.541,0,0,1-1.06-.42l-.07-.07a1.558,1.558,0,0,1-.12-2.15l2.01-2.35-.9-.89a.375.375,0,1,1,.53-.53l1.15,1.13a.372.372,0,0,1,.02.51l-2.23,2.62a.821.821,0,0,0,.06,1.12l.07.07a.829.829,0,0,0,.6.22.8.8,0,0,0,.57-.29l2.65-3.18a.808.808,0,0,0-.03-1.07l-1.34-1.43a.378.378,0,0,1,.02-.53.349.349,0,0,1,.52,0" fill="#fff"/>
              </g>
              <g id="Grupo_207" data-name="Grupo 207">
                <g id="Grupo_206" data-name="Grupo 206">
                  <path id="Trazado_119" data-name="Trazado 119" d="M824.58,506.96a1.354,1.354,0,0,1-.96-.39l-1.64-1.6a.375.375,0,1,1,.52-.54l1.64,1.6a.624.624,0,0,0,.7.12l3.28-1.55a.6.6,0,0,0,.32-.36.576.576,0,0,0-.03-.48.626.626,0,0,0-.82-.29l-2.35,1.08a.366.366,0,0,1-.41-.07l-1.68-1.55a.375.375,0,1,1,.51-.55l1.5,1.38,2.12-.97a1.364,1.364,0,0,1,1.8.64,1.391,1.391,0,0,1,.06,1.06,1.3,1.3,0,0,1-.71.78l-3.28,1.55A1.172,1.172,0,0,1,824.58,506.96Z" fill="#fff"/>
                </g>
              </g>
              <g id="Grupo_209" data-name="Grupo 209">
                <g id="Grupo_208" data-name="Grupo 208">
                  <path id="Trazado_120" data-name="Trazado 120" d="M822.35,514.45a.969.969,0,0,1-.17-.01,1.589,1.589,0,0,1-1.4-1.85l.51-3.03-1.24.1a2.187,2.187,0,0,1-1.8-.71,2.14,2.14,0,0,1-.54-1.82c.33-1.97,1.24-4.59,3.72-5.87a.391.391,0,0,1,.51.16.382.382,0,0,1-.16.51c-2.2,1.14-3.02,3.53-3.32,5.33a1.437,1.437,0,0,0,.36,1.2,1.485,1.485,0,0,0,1.19.47l1.72-.14a.393.393,0,0,1,.31.12.364.364,0,0,1,.09.32l-.59,3.5a.844.844,0,1,0,1.67.25l.63-4.85a.867.867,0,0,0-.2-.67.851.851,0,0,0-.63-.29h-1.64a.37.37,0,0,1,0-.74h1.64a1.623,1.623,0,0,1,1.2.54,1.593,1.593,0,0,1,.38,1.26l-.63,4.85A1.65,1.65,0,0,1,822.35,514.45Z" fill="#fff"/>
                </g>
              </g>
            </g>
          </g>
          <text id="Trading" transform="translate(801.182 547.422)" fill="#f3f4f4" font-size="12.644" font-family="Poppins-Regular, Poppins"><tspan x="0" y="0">Trading</tspan></text>
        </g>
        <g id="Grupo_230" data-name="Grupo 230">
          <g id="Grupo_229" data-name="Grupo 229" opacity="0.74">
            <g id="Grupo_228" data-name="Grupo 228">
              <g id="Grupo_213" data-name="Grupo 213">
                <path id="Trazado_121" data-name="Trazado 121" d="M897.65,525.27a14.64,14.64,0,1,1,14.64-14.64A14.66,14.66,0,0,1,897.65,525.27Zm0-28.45a13.82,13.82,0,1,0,13.82,13.82A13.836,13.836,0,0,0,897.65,496.82Z" fill="#f3f4f4"/>
              </g>
              <g id="Grupo_214" data-name="Grupo 214">
                <path id="Trazado_122" data-name="Trazado 122" d="M872.38,530.24a.4.4,0,0,1-.27-.1.412.412,0,0,1-.04-.58l6.31-7.23a.416.416,0,0,1,.56-.06l4.45,3.4,4.56-4.66a.41.41,0,1,1,.59.57l-4.81,4.92a.412.412,0,0,1-.54.04l-4.43-3.38-6.06,6.94A.486.486,0,0,1,872.38,530.24Z" fill="#f3f4f4"/>
              </g>
              <g id="Grupo_215" data-name="Grupo 215">
                <path id="Trazado_123" data-name="Trazado 123" d="M908.27,501.58a.4.4,0,0,1-.3-.13.42.42,0,0,1,.02-.58l4.27-3.96a.4.4,0,0,1,.56,0l3.28,3.12,7.76-7.58a.411.411,0,0,1,.58.01.4.4,0,0,1-.01.58l-8.04,7.86a.407.407,0,0,1-.57,0l-3.28-3.13-3.98,3.7A.424.424,0,0,1,908.27,501.58Z" fill="#f3f4f4"/>
              </g>
              <g id="Grupo_221" data-name="Grupo 221">
                <g id="Grupo_216" data-name="Grupo 216">
                  <path id="Trazado_124" data-name="Trazado 124" d="M892.84,511.04a.406.406,0,0,1-.41-.41v-7.35a.41.41,0,1,1,.82,0v7.35A.406.406,0,0,1,892.84,511.04Z" fill="#f3f4f4"/>
                </g>
                <g id="Grupo_217" data-name="Grupo 217">
                  <path id="Trazado_125" data-name="Trazado 125" d="M894.77,511.06a.41.41,0,0,1,0-.82l5.39-.02a2.394,2.394,0,0,0,1.58-.65,3.537,3.537,0,0,0,.86-2.61,3.214,3.214,0,0,0-.87-2.42,3.642,3.642,0,0,0-2.39-.85c-2.76-.03-7.21-.05-7.63-.01a.411.411,0,0,1-.22-.79c.08-.03.3-.1,7.83-.02a4.358,4.358,0,0,1,2.96,1.07,3.973,3.973,0,0,1,1.13,3.01,4.3,4.3,0,0,1-1.12,3.21,3.144,3.144,0,0,1-2.15.87l-5.37.03Z" fill="#f3f4f4"/>
                </g>
                <g id="Grupo_218" data-name="Grupo 218">
                  <path id="Trazado_126" data-name="Trazado 126" d="M898.36,509.31h-3.28a.406.406,0,0,1-.41-.41v-4.21a.406.406,0,0,1,.41-.41h3.28a2.515,2.515,0,0,1,0,5.03Zm-2.88-.81h2.87a1.7,1.7,0,0,0,0-3.4h-2.87Z" fill="#f3f4f4"/>
                </g>
                <g id="Grupo_219" data-name="Grupo 219">
                  <path id="Trazado_127" data-name="Trazado 127" d="M895.42,503.66h-.04a.4.4,0,0,1-.37-.44.235.235,0,0,1,.02-.08c.02-.24.01-1.33-.02-2.29a.405.405,0,0,1,.4-.42.419.419,0,0,1,.42.4c.06,2.55.04,2.57-.13,2.73A.455.455,0,0,1,895.42,503.66Z" fill="#f3f4f4"/>
                </g>
                <g id="Grupo_220" data-name="Grupo 220">
                  <path id="Trazado_128" data-name="Trazado 128" d="M898.87,503.66h-.04a.4.4,0,0,1-.37-.44.235.235,0,0,1,.02-.08c.02-.24.01-1.33-.02-2.29a.405.405,0,0,1,.4-.42.412.412,0,0,1,.42.4c.06,2.55.04,2.57-.13,2.73A.478.478,0,0,1,898.87,503.66Z" fill="#f3f4f4"/>
                </g>
              </g>
              <g id="Grupo_227" data-name="Grupo 227">
                <g id="Grupo_222" data-name="Grupo 222">
                  <path id="Trazado_129" data-name="Trazado 129" d="M892.84,518.39a.406.406,0,0,1-.41-.41v-7.35a.41.41,0,1,1,.82,0v7.35A.406.406,0,0,1,892.84,518.39Z" fill="#f3f4f4"/>
                </g>
                <g id="Grupo_223" data-name="Grupo 223">
                  <path id="Trazado_130" data-name="Trazado 130" d="M893.95,518.43a14.753,14.753,0,0,1-2.47-.06.411.411,0,0,1,.22-.79c.42.05,4.87.02,7.6-.01a3.582,3.582,0,0,0,2.41-.85,3.2,3.2,0,0,0,.87-2.42,3.508,3.508,0,0,0-.87-2.62,2.394,2.394,0,0,0-1.55-.64l-5.4-.02a.41.41,0,0,1,0-.82h0l5.39.02a3.165,3.165,0,0,1,2.13.87,4.3,4.3,0,0,1,1.12,3.21,3.958,3.958,0,0,1-1.13,3.01,4.4,4.4,0,0,1-2.99,1.07C896.79,518.42,895.1,518.43,893.95,518.43Z" fill="#f3f4f4"/>
                </g>
                <g id="Grupo_224" data-name="Grupo 224">
                  <path id="Trazado_131" data-name="Trazado 131" d="M898.36,516.98h-3.28a.406.406,0,0,1-.41-.41v-4.21a.406.406,0,0,1,.41-.41h3.28a2.515,2.515,0,0,1,0,5.03Zm-2.88-.81h2.87a1.7,1.7,0,0,0,0-3.4h-2.87Z" fill="#f3f4f4"/>
                </g>
                <g id="Grupo_225" data-name="Grupo 225">
                  <path id="Trazado_132" data-name="Trazado 132" d="M895.42,520.84h0a.414.414,0,0,1-.41-.42c.02-.97.03-2.05.02-2.29-.01-.03-.01-.05-.02-.08a.405.405,0,0,1,.37-.44.42.42,0,0,1,.32.11c.16.15.19.18.13,2.73A.408.408,0,0,1,895.42,520.84Z" fill="#f3f4f4"/>
                </g>
                <g id="Grupo_226" data-name="Grupo 226">
                  <path id="Trazado_133" data-name="Trazado 133" d="M898.87,520.84h0a.414.414,0,0,1-.41-.42c.02-.97.03-2.05.02-2.29-.01-.03-.01-.05-.02-.08a.405.405,0,0,1,.37-.44.42.42,0,0,1,.32.11c.16.15.19.18.13,2.73A.408.408,0,0,1,898.87,520.84Z" fill="#f3f4f4"/>
                </g>
              </g>
            </g>
          </g>
          <text id="Switchcoin" transform="translate(863.984 547.422)" fill="#f3f4f4" font-size="12.644" font-family="Poppins-Regular, Poppins" opacity="0.74"><tspan x="0" y="0">Switchcoin</tspan></text>
        </g>
        <g id="Grupo_232" data-name="Grupo 232" opacity="0.52">
          <g id="Grupo_231" data-name="Grupo 231" opacity="0.32">
            <path id="Trazado_134" data-name="Trazado 134" d="M987.88,504.95l-4.81-11.08a3.04,3.04,0,0,0-3.94-1.62l-18.17,7.28a3.074,3.074,0,0,0-1.71,3.96l1.56,3.98-2.46,1.44a9.488,9.488,0,0,0-4.6,6.79l-2.22,14.75.68.1,2.22-14.75a8.778,8.778,0,0,1,4.26-6.3l2.37-1.39,1.4,3.57-4.12,4.08.49.49,6.02-5.97a2.118,2.118,0,0,1,1.58-.63,2.175,2.175,0,0,1,1.52,3.68l-7.14,7.45.47.45.01.03-.33,2.19a2.771,2.771,0,0,0,1.37,2.81l1.16.66a2.791,2.791,0,0,0,1.36.36h3.31l-.64.84a2.079,2.079,0,0,1-1.29.78l-3.93.68.12.68,3.93-.68a2.748,2.748,0,0,0,1.72-1.04l.96-1.26h1.11a2.767,2.767,0,0,0,2.75-2.55l.17-2.36a2.74,2.74,0,0,0,1.6-2.5v-2.49h-.2a2.783,2.783,0,0,0,.74-1.87v-2.38h-.11l11.06-4.1a3,3,0,0,0,1.75-1.67A3.1,3.1,0,0,0,987.88,504.95Zm-26.67-4.78,18.17-7.28a2.348,2.348,0,0,1,3.05,1.26l1.24,2.86-4.78,1.49a2.443,2.443,0,0,0,.76-1.72c-.06-.66-.54-1.16-1.43-1.5a1.766,1.766,0,0,0-1.93.18,1.586,1.586,0,1,1-2.86,1.15c-.66.06-1.16.54-1.5,1.43a1.766,1.766,0,0,0,.18,1.93,2.2,2.2,0,0,0,1.34.61c-5.26,2.33-12.18,5.39-12.45,5.5l.18.48-1.29-3.3A2.386,2.386,0,0,1,961.21,500.17Zm18.83.15c.15.16.14.46-.02.89-.13.34-.34.75-.63.77-.55.04-1.46-.92-2.1-1.84C978.36,499.95,979.66,499.9,980.04,500.32Zm-3.24-1.36c-.19-1.08-.24-2.38.18-2.75a.486.486,0,0,1,.33-.11,1.711,1.711,0,0,1,.56.12c.34.13.74.34.77.63C978.68,497.42,977.71,498.32,976.8,498.96Zm-.69,1.67c.19,1.08.24,2.38-.18,2.75-.16.15-.46.14-.89-.02-.34-.13-.75-.34-.77-.63C974.23,502.17,975.2,501.27,976.11,500.63Zm-3.24-1.36c-.15-.16-.14-.46.02-.89.13-.34.34-.75.63-.77h.04c.56,0,1.43.95,2.06,1.84C974.55,499.64,973.25,499.69,972.87,499.27Zm-.68,25.4a2.071,2.071,0,0,1-2.06,1.91h-5.29a2.022,2.022,0,0,1-1.02-.27l-1.16-.66a2.085,2.085,0,0,1-1.03-2.1l.18-1.24a2.634,2.634,0,0,0,1.05.78l1.78.76a2.663,2.663,0,0,0,1.07.22,2.705,2.705,0,0,0,.63-.07l5.99-1.4Zm1.77-4.8a2.063,2.063,0,0,1-1.6,2.01l-6.17,1.44a2.083,2.083,0,0,1-1.28-.11l-1.78-.76a2.033,2.033,0,0,1-1.18-1.33l-.12-.42,1.1-1.15,1.85.87a2.809,2.809,0,0,0,1.17.26,2.855,2.855,0,0,0,.96-.17l6.47-2.42a3.1,3.1,0,0,0,.57-.3v2.08Zm.53-4.36a2.081,2.081,0,0,1-1.34,1.94l-6.47,2.42a2.067,2.067,0,0,1-1.6-.07l-1.64-.77,2.36-2.46,8.7-3.23v2.17Zm-7.6-.08,1.55-1.61a2.828,2.828,0,0,0,.77-1.69l4.67-1.84-.25-.64-4.43,1.75a2.882,2.882,0,0,0-.72-1.5,2.837,2.837,0,0,0-2.04-.92,2.8,2.8,0,0,0-2.08.83l-1.37,1.36-1.64-4.18c.35-.11,1.01-.4,2.43-1.03s3.34-1.48,5.25-2.32l4.6-2.03a2,2,0,0,0-.37,1.21c.06.66.54,1.16,1.43,1.5a2.513,2.513,0,0,0,.92.19,1.469,1.469,0,0,0,1.01-.37,1.826,1.826,0,0,0,.52-.92l2.66,7.43Zm20.36-8.33a2.366,2.366,0,0,1-1.36,1.29l-5.14,1.91-2.83-7.92a2.4,2.4,0,0,0,1.44.62h.12c.66-.06,1.16-.54,1.5-1.43a1.766,1.766,0,0,0-.18-1.93,1.881,1.881,0,0,0-.68-.45l3.92-1.22-.15-.49,3.36,7.75A2.381,2.381,0,0,1,987.25,507.1Z" fill="#fff"/>
          </g>
          <text id="Gift_Card" data-name="Gift Card" transform="translate(941.014 547.422)" fill="#f3f4f4" font-size="12.644" font-family="Poppins-Regular, Poppins" opacity="0.32"><tspan x="0" y="0">Gift Card</tspan></text>
        </g>
        <g id="Grupo_234" data-name="Grupo 234">
          <g id="Grupo_233" data-name="Grupo 233" opacity="0.14">
            <path id="Trazado_135" data-name="Trazado 135" d="M1052.89,522h-19.3a2.121,2.121,0,0,1-2.12-2.12v-19.3h21.42Z" fill="none" stroke="#fffbfc" stroke-linecap="round" stroke-linejoin="round" stroke-miterlimit="10" stroke-width="1"/>
            <circle id="Elipse_5" data-name="Elipse 5" cx="2.81" cy="2.81" r="2.81" transform="translate(1043.81 507.72)" stroke-width="1" stroke="#fffbfc" stroke-linecap="round" stroke-linejoin="round" stroke-miterlimit="10" fill="none"/>
            <line id="Línea_3" data-name="Línea 3" x2="4.55" transform="translate(1029.89 509.15)" fill="none" stroke="#fffbfc" stroke-linecap="round" stroke-linejoin="round" stroke-miterlimit="10" stroke-width="1"/>
            <line id="Línea_4" data-name="Línea 4" x2="4.55" transform="translate(1029.89 513.34)" fill="none" stroke="#fffbfc" stroke-linecap="round" stroke-linejoin="round" stroke-miterlimit="10" stroke-width="1"/>
            <circle id="Elipse_6" data-name="Elipse 6" cx="5.9" cy="5.9" r="5.9" transform="translate(1040.72 504.63)" stroke-width="1" stroke="#fffbfc" stroke-linecap="round" stroke-linejoin="round" stroke-miterlimit="10" fill="none"/>
          </g>
          <text id="Boveda" transform="translate(1017.809 547.422)" fill="#f3f4f4" font-size="12.644" font-family="Poppins-Regular, Poppins" opacity="0.14"><tspan x="0" y="0">Boveda</tspan></text>
        </g>
      </g>
    </g>
    <g id="Grupo_237" data-name="Grupo 237">
      <path id="Trazado_136" data-name="Trazado 136" d="M1024.46,515.85l3.71-3.71-3.71-3.7" fill="none" stroke="#fff" stroke-linecap="round" stroke-linejoin="round" stroke-miterlimit="10" stroke-width="2"/>
    </g>
    <g id="Grupo_238" data-name="Grupo 238">
      <path id="Trazado_137" data-name="Trazado 137" d="M706.57,515.85l-3.71-3.71,3.71-3.7" fill="none" stroke="#fff" stroke-linecap="round" stroke-linejoin="round" stroke-miterlimit="10" stroke-width="2"/>
    </g>
  </g>
</svg>
