<svg xmlns="http://www.w3.org/2000/svg" width="27.94" height="27.94" viewBox="0 0 27.94 27.94">
  <path id="Trazado_895" data-name="Trazado 895" d="M803.24,266.92a13.97,13.97,0,1,0,13.97,13.97A13.971,13.971,0,0,0,803.24,266.92Zm5.6,10.47a.281.281,0,0,1-.06.18,4.363,4.363,0,0,1-.89.93c-.05.04-.14.08-.14.15a7.18,7.18,0,0,1-1.34,4.4,6.594,6.594,0,0,1-7.06,2.17,5.817,5.817,0,0,1-1.27-.51c-.13-.07-.27-.15-.4-.23-.03-.03-.06-.05-.03-.07a.334.334,0,0,1,.15,0,4.532,4.532,0,0,0,1.9-.24c.33-.12,1.05-.35,1.25-.66l.01-.01a2.135,2.135,0,0,0-.25-.03,2.479,2.479,0,0,1-1.84-1.54c-.02-.06,0-.09.06-.08a2.543,2.543,0,0,0,.87-.03,1.708,1.708,0,0,1-.3-.09,2.386,2.386,0,0,1-1.46-1.89,1.173,1.173,0,0,1-.01-.26c0-.06.03-.08.09-.05a2.246,2.246,0,0,0,.89.25,3.336,3.336,0,0,1-.28-.25,2.348,2.348,0,0,1-.4-2.77c.04-.07.07-.07.13,0a7.17,7.17,0,0,0,4.62,2.35c.05.01.05,0,.05-.05a2.362,2.362,0,0,1,2.13-2.76h.02a2.351,2.351,0,0,1,1.69.55,1.356,1.356,0,0,1,.12.12.09.09,0,0,0,.09.02,5.878,5.878,0,0,0,1.34-.51l.06-.01v.06a2.127,2.127,0,0,1-.38.69c-.11.13-.38.46-.56.49a4.423,4.423,0,0,0,1.13-.32c.07-.03.07-.04.07,0Z" transform="translate(-789.27 -266.92)" fill="#fff"/>
</svg>
